<svg width="36" height="36" viewBox="0 0 36 36" fill="none" xmlns="http://www.w3.org/2000/svg">
<g id="carbon:building">
<path id="Vector" d="M31.5 2.25H18C17.4033 2.25 16.831 2.48705 16.409 2.90901C15.9871 3.33097 15.75 3.90326 15.75 4.5V15.75H4.5C3.90326 15.75 3.33097 15.9871 2.90901 16.409C2.48705 16.831 2.25 17.4033 2.25 18V33.75H33.75V4.5C33.75 3.90326 33.5129 3.33097 33.091 2.90901C32.669 2.48705 32.0967 2.25 31.5 2.25ZM10.125 31.5V23.625H14.625V31.5H10.125ZM31.5 31.5H16.875V22.5C16.875 22.2016 16.7565 21.9155 16.5455 21.7045C16.3345 21.4935 16.0484 21.375 15.75 21.375H9C8.70163 21.375 8.41548 21.4935 8.2045 21.7045C7.99353 21.9155 7.875 22.2016 7.875 22.5V31.5H4.5V18H18V4.5H31.5V31.5Z" fill="black"/>
<path id="Vector_2" d="M20.25 9H22.5V11.25H20.25V9ZM27 9H29.25V11.25H27V9ZM20.25 15.75H22.5V18H20.25V15.75ZM27 15.75H29.25V18H27V15.75ZM20.25 22.5H22.5V24.75H20.25V22.5ZM27 22.5H29.25V24.75H27V22.5Z" fill="black"/>
</g>
</svg>
