<svg width="36" height="36" viewBox="0 0 36 36" fill="none" xmlns="http://www.w3.org/2000/svg">
<g id="fluent:code-16-regular">
<path id="Vector" d="M22.0568 6.84668C22.1918 6.90665 22.3137 6.99263 22.4155 7.09972C22.5173 7.2068 22.597 7.3329 22.6501 7.4708C22.7032 7.6087 22.7286 7.7557 22.7248 7.90341C22.7211 8.05112 22.6883 8.19665 22.6283 8.33168L13.6283 28.5817C13.5071 28.8544 13.2826 29.0678 13.0041 29.175C12.7256 29.2822 12.416 29.2743 12.1433 29.1532C11.8705 29.032 11.6571 28.8075 11.5499 28.529C11.4428 28.2505 11.4506 27.9409 11.5718 27.6682L20.5718 7.41818C20.6317 7.28314 20.7177 7.16123 20.8248 7.05942C20.9319 6.95761 21.058 6.87789 21.1959 6.82482C21.3338 6.77175 21.4808 6.74637 21.6285 6.75012C21.7762 6.75387 21.9217 6.78668 22.0568 6.84668ZM9.74925 12.0959C9.85947 12.1943 9.94923 12.3135 10.0134 12.4465C10.0776 12.5796 10.1149 12.724 10.1233 12.8715C10.1316 13.019 10.1108 13.1668 10.0621 13.3062C10.0134 13.4457 9.93765 13.5742 9.83925 13.6844L6.0075 17.9999L9.84375 22.3154C9.94185 22.4259 10.0172 22.5547 10.0656 22.6943C10.1139 22.834 10.1343 22.9817 10.1255 23.1292C10.1167 23.2768 10.079 23.4211 10.0144 23.554C9.94986 23.6869 9.85976 23.8058 9.74925 23.9039C9.63875 24.002 9.51 24.0774 9.37036 24.1257C9.23073 24.1741 9.08294 24.1944 8.93543 24.1857C8.78793 24.1769 8.64359 24.1392 8.51067 24.0746C8.37775 24.01 8.25885 23.9199 8.16075 23.8094L3.66075 18.7469C3.47793 18.541 3.37695 18.2753 3.37695 17.9999C3.37695 17.7246 3.47793 17.4588 3.66075 17.2529L8.16075 12.1904C8.25884 12.0799 8.37773 11.9898 8.51065 11.9252C8.64357 11.8606 8.78791 11.8229 8.93543 11.8141C9.08294 11.8053 9.23074 11.8257 9.37038 11.8741C9.51002 11.9224 9.63876 11.9978 9.74925 12.0959ZM26.253 12.0959C26.3635 11.9978 26.4922 11.9224 26.6319 11.8741C26.7715 11.8257 26.9193 11.8053 27.0668 11.8141C27.2143 11.8229 27.3587 11.8606 27.4916 11.9252C27.6245 11.9898 27.7434 12.0799 27.8415 12.1904L32.3415 17.2529C32.5243 17.4588 32.6253 17.7246 32.6253 17.9999C32.6253 18.2753 32.5243 18.541 32.3415 18.7469L27.8415 23.8094C27.6434 24.0326 27.3647 24.1679 27.0668 24.1857C26.7689 24.2034 26.4762 24.102 26.253 23.9039C26.0298 23.7058 25.8945 23.4272 25.8768 23.1292C25.859 22.8313 25.9604 22.5386 26.1585 22.3154L29.9948 17.9999L26.1585 13.6844C26.0604 13.5739 25.985 13.4452 25.9366 13.3056C25.8883 13.1659 25.8679 13.0181 25.8767 12.8706C25.8854 12.7231 25.9232 12.5787 25.9878 12.4458C26.0523 12.3129 26.1425 12.194 26.253 12.0959Z" fill="black"/>
</g>
</svg>
