<svg width="36" height="36" viewBox="0 0 36 36" fill="none" xmlns="http://www.w3.org/2000/svg">
<g id="fluent:magic-wand-16-regular">
<path id="Vector" d="M30.375 2.25C30.6734 2.25 30.9596 2.36853 31.1705 2.5795C31.3815 2.79048 31.5 3.07663 31.5 3.375V4.5H32.625C32.9234 4.5 33.2096 4.61853 33.4205 4.8295C33.6315 5.04048 33.75 5.32663 33.75 5.625C33.75 5.92337 33.6315 6.20952 33.4205 6.4205C33.2096 6.63147 32.9234 6.75 32.625 6.75H31.5V7.875C31.5 8.17337 31.3815 8.45952 31.1705 8.6705C30.9596 8.88147 30.6734 9 30.375 9C30.0767 9 29.7905 8.88147 29.5795 8.6705C29.3686 8.45952 29.25 8.17337 29.25 7.875V6.75H28.125C27.8267 6.75 27.5405 6.63147 27.3295 6.4205C27.1186 6.20952 27 5.92337 27 5.625C27 5.32663 27.1186 5.04048 27.3295 4.8295C27.5405 4.61853 27.8267 4.5 28.125 4.5H29.25V3.375C29.25 3.07663 29.3686 2.79048 29.5795 2.5795C29.7905 2.36853 30.0767 2.25 30.375 2.25ZM7.87503 6.75C8.1734 6.75 8.45955 6.86853 8.67053 7.0795C8.88151 7.29048 9.00003 7.57663 9.00003 7.875V9H10.125C10.4234 9 10.7095 9.11853 10.9205 9.3295C11.1315 9.54048 11.25 9.82663 11.25 10.125C11.25 10.4234 11.1315 10.7095 10.9205 10.9205C10.7095 11.1315 10.4234 11.25 10.125 11.25H9.00003V12.375C9.00003 12.6734 8.88151 12.9595 8.67053 13.1705C8.45955 13.3815 8.1734 13.5 7.87503 13.5C7.57667 13.5 7.29052 13.3815 7.07954 13.1705C6.86856 12.9595 6.75003 12.6734 6.75003 12.375V11.25H5.62503C5.32667 11.25 5.04052 11.1315 4.82954 10.9205C4.61856 10.7095 4.50003 10.4234 4.50003 10.125C4.50003 9.82663 4.61856 9.54048 4.82954 9.3295C5.04052 9.11853 5.32667 9 5.62503 9H6.75003V7.875C6.75003 7.57663 6.86856 7.29048 7.07954 7.0795C7.29052 6.86853 7.57667 6.75 7.87503 6.75ZM28.125 27C28.4234 27 28.7096 26.8815 28.9205 26.6705C29.1315 26.4595 29.25 26.1734 29.25 25.875C29.25 25.5766 29.1315 25.2905 28.9205 25.0795C28.7096 24.8685 28.4234 24.75 28.125 24.75H27V23.625C27 23.3266 26.8815 23.0405 26.6705 22.8295C26.4596 22.6185 26.1734 22.5 25.875 22.5C25.5767 22.5 25.2905 22.6185 25.0795 22.8295C24.8686 23.0405 24.75 23.3266 24.75 23.625V24.75H23.625C23.3267 24.75 23.0405 24.8685 22.8295 25.0795C22.6186 25.2905 22.5 25.5766 22.5 25.875C22.5 26.1734 22.6186 26.4595 22.8295 26.6705C23.0405 26.8815 23.3267 27 23.625 27H24.75V28.125C24.75 28.4234 24.8686 28.7095 25.0795 28.9205C25.2905 29.1315 25.5767 29.25 25.875 29.25C26.1734 29.25 26.4596 29.1315 26.6705 28.9205C26.8815 28.7095 27 28.4234 27 28.125V27H28.125ZM19.6425 10.2668C20.4505 9.45907 21.5463 9.00543 22.6887 9.00564C23.8312 9.00586 24.9267 9.45989 25.7344 10.2679C26.5421 11.0759 26.9957 12.1716 26.9955 13.314C26.9953 14.4565 26.5413 15.5521 25.7333 16.3597L9.60078 32.4923C8.7928 33.2999 7.69706 33.7536 6.55461 33.7534C5.41217 33.7531 4.31659 33.2991 3.50891 32.4911C2.70123 31.6831 2.24759 30.5874 2.2478 29.445C2.24801 28.3025 2.70205 27.2069 3.51003 26.3993L19.6425 10.2668ZM18.5625 14.5282L5.10078 27.99C4.71499 28.3758 4.49826 28.899 4.49826 29.4446C4.49826 29.9902 4.71499 30.5135 5.10078 30.8993C5.48657 31.285 6.00982 31.5018 6.55541 31.5018C7.101 31.5018 7.62424 31.285 8.01003 30.8993L21.4718 17.4375L18.5625 14.5282ZM23.0625 15.8468L24.1425 14.7668C24.3371 14.5766 24.4921 14.3496 24.5984 14.0991C24.7046 13.8486 24.7601 13.5795 24.7616 13.3074C24.7631 13.0353 24.7106 12.7656 24.6071 12.5139C24.5037 12.2622 24.3513 12.0336 24.1588 11.8413C23.9663 11.6489 23.7375 11.4967 23.4858 11.3934C23.234 11.2901 22.9643 11.2378 22.6922 11.2395C22.4201 11.2412 22.151 11.2969 21.9006 11.4034C21.6501 11.5099 21.4233 11.665 21.2333 11.8597L20.1533 12.9397L23.0625 15.8468Z" fill="black"/>
</g>
</svg>
