<svg width="36" height="36" viewBox="0 0 36 36" fill="none" xmlns="http://www.w3.org/2000/svg">
<g id="hugeicons:marketing">
<g id="Group">
<path id="Vector" fill-rule="evenodd" clip-rule="evenodd" d="M28.5 7.11162V12.0001C29.0909 12.0001 29.6761 12.1165 30.2221 12.3427C30.768 12.5688 31.2641 12.9003 31.682 13.3181C32.0998 13.736 32.4313 14.2321 32.6574 14.778C32.8836 15.324 33 15.9092 33 16.5001C33 17.0911 32.8836 17.6762 32.6574 18.2222C32.4313 18.7682 32.0998 19.2642 31.682 19.6821C31.2641 20.1 30.768 20.4314 30.2221 20.6576C29.6761 20.8837 29.0909 21.0001 28.5 21.0001V25.5001C28.5 27.9721 25.6785 29.3836 23.7 27.9001L20.61 25.5811C18.9582 24.3428 17.0351 23.5159 15 23.1691V27.4351C15.0002 28.4157 14.6458 29.3634 14.0023 30.1033C13.3588 30.8433 12.4696 31.3256 11.4984 31.4616C10.5273 31.5975 9.53971 31.3778 8.71781 30.8429C7.8959 30.308 7.29504 29.4941 7.02599 28.5511L4.67099 20.3071C3.82352 19.3063 3.27199 18.0889 3.07842 16.7919C2.88484 15.4948 3.05689 14.1695 3.57521 12.9648C4.09354 11.7602 4.9376 10.724 6.01251 9.97271C7.08743 9.22145 8.35058 8.78489 9.65999 8.71212L14.187 8.46012C16.402 8.33709 18.556 7.68984 20.472 6.57162L23.988 4.51962C25.989 3.35412 28.5 4.79562 28.5 7.11162ZM8.45099 22.6171L9.91049 27.7276C9.98073 27.975 10.1381 28.1886 10.3535 28.329C10.569 28.4694 10.828 28.5271 11.0826 28.4914C11.3373 28.4558 11.5705 28.3292 11.7391 28.135C11.9077 27.9409 12.0004 27.6923 12 27.4351V22.9201L9.65999 22.7896C9.25297 22.7651 8.84863 22.7074 8.45099 22.6171ZM25.5 7.11162L21.9825 9.16512C19.8464 10.4127 17.4631 11.1776 15 11.4061V20.1346C17.6805 20.5036 20.232 21.5491 22.41 23.1811L25.5 25.5001V7.11162ZM12 11.5861L9.82499 11.7061C8.81316 11.762 7.85903 12.1952 7.15096 12.9201C6.44289 13.6451 6.03232 14.6091 6.00029 15.622C5.96827 16.6348 6.31712 17.6229 6.97799 18.3911C7.63885 19.1594 8.56371 19.6519 9.56999 19.7716L9.82499 19.7941L12 19.9141V11.5861ZM28.5 15.0001V18.0001C28.8823 17.9997 29.25 17.8533 29.528 17.5908C29.806 17.3284 29.9733 16.9697 29.9957 16.588C30.0182 16.2064 29.894 15.8306 29.6486 15.5374C29.4032 15.2442 29.0551 15.0558 28.6755 15.0106L28.5 15.0001Z" fill="black"/>
</g>
</g>
</svg>
