<svg width="36" height="36" viewBox="0 0 36 36" fill="none" xmlns="http://www.w3.org/2000/svg">
<g id="hugeicons:car-01">
<g id="Group">
<path id="Vector" d="M3.75 18L6.75 19.5M32.25 18.75L29.25 19.5M12 26.25L12.369 25.329C12.9165 23.9595 13.191 23.274 13.7625 22.887C14.3325 22.5 15.0705 22.5 16.5465 22.5H19.4535C20.9295 22.5 21.6675 22.5 22.2375 22.887C22.8075 23.274 23.0835 23.9595 23.6325 25.329L24 26.25M3 25.5V29.823C3 30.3915 3.36 30.9105 3.933 31.164C4.3035 31.329 4.6575 31.5 5.0865 31.5H7.6635C8.0925 31.5 8.4465 31.329 8.8185 31.164C9.3885 30.9105 9.75 30.3915 9.75 29.823V27M26.25 27V29.823C26.25 30.3915 26.61 30.9105 27.183 31.164C27.5535 31.329 27.9075 31.5 28.3365 31.5H30.9135C31.3425 31.5 31.6965 31.329 32.0685 31.164C32.6385 30.9105 33 30.3915 33 29.823V25.5M30 12.75L31.5 12M6 12.75L4.5 12M6.75 13.5L8.382 8.6025C9.042 6.6225 9.372 5.6325 10.158 5.067C10.944 4.5015 11.988 4.5 14.0745 4.5H21.9255C24.012 4.5 25.056 4.5 25.8405 5.067C26.628 5.6325 26.958 6.6225 27.618 8.6025L29.25 13.5" stroke="black" strokeWidth="2.25" strokeLinecap="round" strokeLinejoin="round"/>
<path id="Vector_2" d="M6.75 13.5H29.25C30.6855 15.021 33 17.1375 33 19.5V24.705C33 25.56 32.43 26.28 31.6755 26.3805L27 27H9L4.3245 26.3805C3.57 26.283 3 25.563 3 24.705V19.5C3 17.1375 5.3145 15.021 6.75 13.5Z" stroke="black" strokeWidth="2.25" strokeLinecap="round" strokeLinejoin="round"/>
</g>
</g>
</svg>
