<svg width="36" height="36" viewBox="0 0 36 36" fill="none" xmlns="http://www.w3.org/2000/svg">
<g id="mynaui:store">
<path id="Vector" d="M29.994 15.9315V28.5C29.994 29.2956 29.6779 30.0587 29.1153 30.6213C28.5527 31.1839 27.7897 31.5 26.994 31.5H9.00601C8.21062 31.4996 7.44794 31.1834 6.88566 30.6208C6.32337 30.0582 6.00751 29.2954 6.00751 28.5V15.9315M11.253 13.125L12.003 4.5M11.253 13.125C11.253 17.478 18 17.478 18 13.125M11.253 13.125C11.253 17.889 3.52051 16.905 4.60351 12.753L6.17101 6.7425C6.33853 6.10054 6.71413 5.53223 7.23904 5.12647C7.76395 4.72071 8.40856 4.5004 9.07201 4.5H26.928C27.5915 4.5004 28.2361 4.72071 28.761 5.12647C29.2859 5.53223 29.6615 6.10054 29.829 6.7425L31.3965 12.753C32.4795 16.9065 24.747 17.889 24.747 13.125M18 13.125V4.5M18 13.125C18 17.478 24.747 17.478 24.747 13.125M24.747 13.125L23.997 4.5" stroke="black" stroke-width="2.25" stroke-linecap="round" stroke-linejoin="round"/>
</g>
</svg>
