<svg width="36" height="36" viewBox="0 0 36 36" fill="none" xmlns="http://www.w3.org/2000/svg">
<g id="solar:tv-linear">
<g id="Group">
<path id="Vector" d="M33 24C33 28.242 33 30.3645 31.6815 31.6815C30.3645 33 28.242 33 24 33H12C7.758 33 5.6355 33 4.3185 31.6815C3 30.3645 3 28.242 3 24V18C3 13.758 3 11.6355 4.3185 10.3185C5.6355 9 7.758 9 12 9H24C28.242 9 30.3645 9 31.6815 10.3185C33 11.6355 33 13.758 33 18V24Z" stroke="black" stroke-width="2.25"/>
<path id="Vector_2" d="M13.5 3L18 8.25L22.5 3M24 9V33" stroke="black" stroke-width="2.25" stroke-linecap="round"/>
<path id="Vector_3" d="M30 24C30 23.6022 29.842 23.2206 29.5607 22.9393C29.2794 22.658 28.8978 22.5 28.5 22.5C28.1022 22.5 27.7206 22.658 27.4393 22.9393C27.158 23.2206 27 23.6022 27 24C27 24.3978 27.158 24.7794 27.4393 25.0607C27.7206 25.342 28.1022 25.5 28.5 25.5C28.8978 25.5 29.2794 25.342 29.5607 25.0607C29.842 24.7794 30 24.3978 30 24ZM30 18C30 17.6022 29.842 17.2206 29.5607 16.9393C29.2794 16.658 28.8978 16.5 28.5 16.5C28.1022 16.5 27.7206 16.658 27.4393 16.9393C27.158 17.2206 27 17.6022 27 18C27 18.3978 27.158 18.7794 27.4393 19.0607C27.7206 19.342 28.1022 19.5 28.5 19.5C28.8978 19.5 29.2794 19.342 29.5607 19.0607C29.842 18.7794 30 18.3978 30 18Z" fill="black"/>
</g>
</g>
</svg>
