<?xml version="1.0" encoding="utf-8"?>
<!-- Generator: Adobe Illustrator 28.1.0, SVG Export Plug-In . SVG Version: 6.00 Build 0)  -->
<svg version="1.1" id="Layer_1" xmlns="http://www.w3.org/2000/svg" xmlns:xlink="http://www.w3.org/1999/xlink" x="0px" y="0px"
	 viewBox="0 0 86.47 114.53" style="enable-background:new 0 0 86.47 114.53;" xml:space="preserve">
<style type="text/css">
	.st0{fill:#FFFFFF;}
	.st1{fill:url(#SVGID_1_);}
	.st2{fill:url(#SVGID_00000090976422119433839560000008604337837004044941_);}
	.st3{fill:url(#SVGID_00000000205459108212304080000010153341360348350856_);}
	.st4{fill:url(#SVGID_00000159447646209581762240000006209457348689366406_);}
	.st5{clipPath:url(#SVGID_00000150814278858143190920000002972629809215549887_);}
	.st6{fill:none;stroke:#FFFFFF;strokeWidth:3;stroke-miterlimit:10;}
	.st7{opacity:0.6;fill:#FFFFFF;}
	.st8{fill:#333333;}
	.st9{fill:#FFCC00;}
	.st10{fill:#FFEDA1;}
	.st11{fill:url(#SVGID_00000079460179071659989170000006226307928843840415_);stroke:#FFFFFF;stroke-miterlimit:10;}
	.st12{fill:#CCCCCC;}
	.st13{clipPath:url(#SVGID_00000025426898103252813320000005464876183179416462_);}
	.st14{fill:url(#XMLID_00000181766564726479185950000006576163393697038772_);}
	.st15{fill:#003333;}
	.st16{fill:#00EEAC;}
	.st17{fill:#FFFFFF;stroke:url(#XMLID_00000035504046106199777030000005768830767294600618_);strokeWidth:2;stroke-miterlimit:10;}
	.st18{fill:#FFFFFF;stroke:url(#XMLID_00000090273041363358066110000008045162923123982743_);stroke-miterlimit:10;}
	.st19{fill:#FFFFFF;stroke:url(#XMLID_00000001660618383446568580000001931235865853571761_);strokeWidth:2;stroke-miterlimit:10;}
	.st20{fill:#FFC200;}
	.st21{fill:none;stroke:#FFFFFF;stroke-miterlimit:10;}
	.st22{fill:url(#SVGID_00000139991027231501561430000009095896613500913839_);stroke:#FFFFFF;stroke-miterlimit:10;}
	.st23{fill:url(#SVGID_00000079484669809027856640000013090887200517524877_);stroke:#FFFFFF;stroke-miterlimit:10;}
</style>
<g>
	<g>
		<g>
			<path class="st20" d="M12.96,98.32c17.2,19.33,42.8,9.46,44.35-18.56c0.12-1.4,0.03-2.99-0.02-4.36
				c-14.9-1.59-31.01-12.39-34.94-28.01c-3.48-14.09,7.21-20.27,16.13-13.53c10.59,8.06,19.3,21.03,22.37,35.88
				c9.4,0.01,17.82-4.64,20.8-16.85C86.64,32.33,71.18,8.34,55.14,3.28c-1.69-0.4-1.52-3.64,0.17-3.24
				c21.62,3.89,38.3,38.22,28.08,61.98c-4.04,9.18-12.36,13.35-21.72,13.56c1.35,15.37-5.9,28.99-16.17,35.56
				c-11.91,7.53-25,1.73-34.71-9.69C9.21,99.65,11.43,96.75,12.96,98.32z M44.63,46.59c-3.64-4.43-8.28-9.37-13.36-10.57
				c-4.91-1.23-5.12,7.07-4.69,10.66c0.58,4.49,3.72,8.08,6.54,10.82c5.92,6.1,14.84,10.78,23.37,12.08
				C54.48,60.97,49.7,53.07,44.63,46.59z"/>
			<path class="st20" d="M1.73,91.75c4.92-0.84,10.08-1.26,15.09-0.5c2.04,0.34,1.74,3.83-0.27,3.72
				c-4.01-0.23-8.01,0.68-11.84,1.56c0.67,2.87,1.38,5.96,2.22,8.8c0.73,2.17,2.53,5.3,1.86,7.71c-0.34,1.2-1.21,1.35-2.17,1.06
				c-2.3-0.76-3.09-5.44-3.86-7.83c-1.21-3.92-2.03-7.68-2.71-11.7C-0.19,93.22,0.67,91.92,1.73,91.75z"/>
		</g>
	</g>
</g>
</svg>
