<?xml version="1.0" encoding="utf-8"?>
<!-- Generator: Adobe Illustrator 28.1.0, SVG Export Plug-In . SVG Version: 6.00 Build 0)  -->
<svg version="1.1" id="Layer_1" xmlns="http://www.w3.org/2000/svg" xmlns:xlink="http://www.w3.org/1999/xlink" x="0px" y="0px"
	 viewBox="0 0 240.39 225.63" style="enable-background:new 0 0 240.39 225.63;" xml:space="preserve">
<style type="text/css">
	.st0{fill:#FFFFFF;}
	.st1{fill:url(#SVGID_1_);}
	.st2{fill:url(#SVGID_00000145755763507277094050000004970524963683181706_);}
	.st3{fill:url(#SVGID_00000114783422450543698320000011265461805162414478_);}
	.st4{fill:url(#SVGID_00000170264961841654684010000014336262813151369407_);}
	.st5{clipPath:url(#SVGID_00000052808360459743493480000008822487374444572587_);}
	.st6{fill:none;stroke:#FFFFFF;strokeWidth:3;stroke-miterlimit:10;}
	.st7{opacity:0.6;fill:#FFFFFF;}
	.st8{fill:#333333;}
	.st9{fill:#FFCC00;}
	.st10{fill:#FFEDA1;}
	.st11{fill:url(#SVGID_00000054958223587229236710000000629876620873531538_);stroke:#FFFFFF;stroke-miterlimit:10;}
	.st12{fill:#CCCCCC;}
	.st13{clipPath:url(#SVGID_00000120533414929387159750000014854724841471297440_);}
	.st14{fill:url(#XMLID_00000119797604239730996990000001909785631379742612_);}
	.st15{fill:#003333;}
	.st16{fill:#00EEAC;}
	.st17{fill:#FFFFFF;stroke:url(#XMLID_00000031915942391781440470000011744240308789260704_);strokeWidth:2;stroke-miterlimit:10;}
	.st18{fill:#FFFFFF;stroke:url(#XMLID_00000116918068236089613170000007201213280842722746_);stroke-miterlimit:10;}
	.st19{fill:#FFFFFF;stroke:url(#XMLID_00000034080581557211048860000014855699908846743978_);strokeWidth:2;stroke-miterlimit:10;}
	.st20{fill:#FFC200;}
	.st21{fill:none;stroke:#FFFFFF;stroke-miterlimit:10;}
	.st22{fill:url(#SVGID_00000070086825797636179980000012380458132308192951_);stroke:#FFFFFF;stroke-miterlimit:10;}
	.st23{fill:url(#SVGID_00000163053552776724462690000004504066855448545932_);stroke:#FFFFFF;stroke-miterlimit:10;}
</style>
<g>
	<linearGradient id="SVGID_1_" gradientUnits="userSpaceOnUse" x1="53.3397" y1="38.5748" x2="203.5703" y2="188.8054">
		<stop  offset="0" style="stop-color:#FFD3B6"/>
		<stop  offset="0.2403" style="stop-color:#FCD1BA"/>
		<stop  offset="0.4879" style="stop-color:#F3CCC7"/>
		<stop  offset="0.7389" style="stop-color:#E5C3DB"/>
		<stop  offset="0.9908" style="stop-color:#D1B8F8"/>
		<stop  offset="1" style="stop-color:#D0B7F9"/>
	</linearGradient>
	<circle class="st1" cx="127.58" cy="112.81" r="112.81"/>
	<g>
		<g>
			
				<linearGradient id="SVGID_00000102522217051241067120000002205988348104150971_" gradientUnits="userSpaceOnUse" x1="1.4617" y1="112.8252" x2="107.9385" y2="112.8252">
				<stop  offset="0.014" style="stop-color:#9933FF"/>
				<stop  offset="0.5587" style="stop-color:#6325C6"/>
				<stop  offset="1" style="stop-color:#49159E"/>
			</linearGradient>
			<path style="fill:url(#SVGID_00000102522217051241067120000002205988348104150971_);" d="M3.46,83.01
				c8.77-7.5,22.37-10.53,32.54-4.19c2.76,1.72,4.97,3.84,6.21,6.87c1.04,2.54,1.33,5.34,1.1,8.06c-0.29,3.55-1.37,7.37-3.25,10.43
				c-0.69,1.13-1.76,2.08-2.78,2.9c-2.79,2.26-6.49,3.59-9.75,1.49c0.7,0.73,1.41,1.45,2.11,2.18c-0.14-0.22,0.14-0.06,0.18,0.32
				c0-0.03-0.16-0.36-0.18-0.36c-0.03-0.01-0.08-0.19-0.09-0.22c0.25,0.56,0.06,0.18,0.02,0.03c-0.07-0.26-0.16-0.51-0.22-0.78
				c-0.26-1.18-0.14-2.96,0.35-4.43c0.84-2.52,2.65-4.66,4.58-6.42c3.46-3.17,7.66-5.5,11.89-7.46c1.57-0.73,2.88-1.36,4.54-1.65
				c1.74-0.31,3.51-0.43,5.28-0.39c2.37,0.06,4.73,0.45,6.95,1.27c1.24,0.46,2.39,1.04,3.5,1.75c1.09,0.69,1.95,1.52,2.64,2.3
				c0.54,0.61-0.29-0.39,0.22,0.26c0.11,0.13,0.21,0.27,0.31,0.4c0.29,0.38,0.3,0.4,0.56,0.8c0.47,0.73,0.89,1.48,1.27,2.26
				c0.98,2.01,1.67,4.13,2.2,6.29c0.45,1.85,0.72,3.41,0.78,5.28c0.22,6.37-2.51,13.71-9.6,14.96c-0.51,0.09-1.05,0.14-1.57,0.05
				c-0.07-0.01-0.32-0.16-0.44-0.13c-0.14,0.03-0.15-0.26,0.05,0.03c0.18,0.27,0.58,0.48,0.81,0.73c0.24,0.27,0.4,0.62,0.63,0.88
				c-0.09-0.09-0.01-0.24,0.01,0.05c-0.01-0.2-0.13-0.42-0.16-0.63c-0.06-0.37-0.04-0.95,0.01-1.41c0.3-2.82,1.82-5.48,3.5-7.7
				c5.04-6.64,12.99-9.87,21.25-8.88c4.03,0.49,7.97,2.11,10.92,4.93c2.43,2.32,4.24,6.08,5.12,9.66
				c2.17,8.89-0.83,18.46-5.27,26.19c-0.32,0.56-0.65,1.12-1.01,1.66c-0.73,1.09,2.93,4.33,3.34,3.72
				c2.68-4.01,4.65-8.71,5.91-13.35c1.95-7.2,1.65-14.81-1.77-21.53c-3.14-6.16-8.49-11.59-15.09-13.94
				c-6.27-2.23-13.71-1.79-19.54,1.49c-4.48,2.52-8.26,6.66-10.12,11.47c-0.64,1.66-1.07,3.52-0.62,5.28
				c0.54,2.12,2.55,4.46,4.65,5.14c2.03,0.67,4.43-0.35,6.16-1.36c2.4-1.4,4.11-3.57,5.13-6.14c1.45-3.64,1.5-7.81,0.81-11.62
				c-1.85-10.22-8.49-20.59-19.06-23.27c-3.2-0.81-6.52-0.96-9.78-0.51c-3.63,0.5-6.85,2.27-10.04,4.03
				c-5.98,3.29-15.24,9.84-12.52,17.99c1.35,4.04,5.84,6.54,10,5.41c2.9-0.79,6.04-3.01,7.5-5.71c1.77-3.26,2.95-6.96,3.21-10.66
				c0.47-6.49-2.33-12.31-6.83-16.88c-5.65-5.73-13.53-9.13-21.62-8.39c-5.67,0.52-11.16,2.79-15.87,5.94
				c-0.83,0.55-1.65,1.13-2.41,1.77C-0.66,79.95,2.63,83.72,3.46,83.01L3.46,83.01z"/>
		</g>
	</g>
</g>
</svg>
