<svg width="16" height="16" viewBox="0 0 16 16" fill="none" xmlns="http://www.w3.org/2000/svg">
<g id="f7:wand-rays" clip-path="url(#clip0_360_1090)">
<path id="Vector" d="M8.57903 1.44744C8.57903 1.13287 8.31132 0.864868 7.99646 0.864868C7.68189 0.864868 7.41389 1.13287 7.41389 1.44773V3.51001C7.41389 3.83144 7.68189 4.09944 7.99675 4.09944C8.31103 4.09944 8.57903 3.83144 8.57903 3.51001V1.44744ZM10.7353 4.4343C10.5145 4.65515 10.5145 5.03001 10.7353 5.25773C10.963 5.47887 11.3447 5.47887 11.5659 5.25773L13.0256 3.79773C13.1349 3.68726 13.1962 3.53813 13.1962 3.38273C13.1962 3.22732 13.1349 3.07819 13.0256 2.96773C12.8045 2.74658 12.4296 2.74658 12.2019 2.96773L10.7353 4.4343ZM4.42732 5.25773C4.64846 5.47887 5.02332 5.47887 5.24446 5.25773C5.47189 5.03001 5.47189 4.65487 5.24446 4.43401L3.79789 2.9743C3.57703 2.75344 3.20189 2.74658 2.97417 2.96773C2.75332 3.18858 2.75332 3.56373 2.97417 3.79144L4.42732 5.25773ZM13.4142 14.5057C13.6956 14.7934 14.1776 14.7934 14.4456 14.5057C14.5794 14.3674 14.6541 14.1825 14.6541 13.99C14.6541 13.7976 14.5794 13.6127 14.4456 13.4743L8.0836 7.08573C7.80246 6.80458 7.3136 6.80458 7.05218 7.08573C6.77103 7.38058 6.77789 7.84287 7.05218 8.12401L13.4142 14.5057ZM1.44732 7.4143C1.13275 7.4143 0.864746 7.68201 0.864746 7.99658C0.864746 8.31144 1.13275 8.57944 1.4476 8.57944H3.51675C3.83817 8.57944 4.10589 8.31144 4.10589 7.99658C4.10589 7.68201 3.83817 7.41401 3.51675 7.41401L1.44732 7.4143ZM14.5456 8.57915C14.8605 8.57915 15.135 8.31144 15.135 7.99658C15.135 7.68201 14.8605 7.41401 14.5456 7.41401H12.483C12.1616 7.41401 11.8939 7.68201 11.8939 7.99687C11.8939 8.31115 12.1616 8.57915 12.483 8.57915H14.5456ZM9.52332 9.90515L7.55475 7.93658C7.43417 7.81601 7.40732 7.68858 7.51446 7.56801C7.63503 7.46087 7.76218 7.48773 7.88932 7.61487L9.8516 9.58344L9.52332 9.90515ZM2.9676 12.1954C2.74646 12.4163 2.73989 12.798 2.96075 13.0189C3.18189 13.24 3.5636 13.2466 3.79132 13.0257L5.24417 11.5657C5.29821 11.5123 5.34111 11.4487 5.37039 11.3786C5.39966 11.3085 5.41474 11.2333 5.41474 11.1573C5.41474 11.0813 5.39966 11.0061 5.37039 10.936C5.34111 10.8659 5.29821 10.8023 5.24417 10.7489C5.02989 10.5212 4.64846 10.5212 4.42732 10.7489L2.9676 12.1954ZM8.57903 12.4897C8.57903 12.1686 8.31132 11.9006 7.99646 11.9006C7.68189 11.9006 7.41389 12.1686 7.41389 12.49V14.5526C7.41389 14.8672 7.68189 15.1352 7.99675 15.1352C8.31103 15.1352 8.57903 14.8672 8.57903 14.5523V12.4897Z" fill="black"/>
</g>
<defs>
<clipPath id="clip0_360_1090">
<rect width="16" height="16" fill="white"/>
</clipPath>
</defs>
</svg>
