<svg width="18" height="18" viewBox="0 0 18 18" fill="none" xmlns="http://www.w3.org/2000/svg">
<g id="fluent:resize-large-16-regular">
<path id="Vector" d="M5.0625 3.375C4.61495 3.375 4.18572 3.55279 3.86926 3.86926C3.55279 4.18572 3.375 4.61495 3.375 5.0625V6.1875C3.375 6.33668 3.31574 6.47976 3.21025 6.58525C3.10476 6.69074 2.96168 6.75 2.8125 6.75C2.66332 6.75 2.52024 6.69074 2.41475 6.58525C2.30926 6.47976 2.25 6.33668 2.25 6.1875V5.0625C2.25 4.31658 2.54632 3.60121 3.07376 3.07376C3.60121 2.54632 4.31658 2.25 5.0625 2.25H6.1875C6.33668 2.25 6.47976 2.30926 6.58525 2.41475C6.69074 2.52024 6.75 2.66332 6.75 2.8125C6.75 2.96168 6.69074 3.10476 6.58525 3.21025C6.47976 3.31574 6.33668 3.375 6.1875 3.375H5.0625ZM14.625 5.0625C14.625 4.61495 14.4472 4.18572 14.1307 3.86926C13.8143 3.55279 13.3851 3.375 12.9375 3.375H11.8125C11.6633 3.375 11.5202 3.31574 11.4148 3.21025C11.3093 3.10476 11.25 2.96168 11.25 2.8125C11.25 2.66332 11.3093 2.52024 11.4148 2.41475C11.5202 2.30926 11.6633 2.25 11.8125 2.25H12.9375C13.6834 2.25 14.3988 2.54632 14.9262 3.07376C15.4537 3.60121 15.75 4.31658 15.75 5.0625V6.1875C15.75 6.33668 15.6907 6.47976 15.5852 6.58525C15.4798 6.69074 15.3367 6.75 15.1875 6.75C15.0383 6.75 14.8952 6.69074 14.7898 6.58525C14.6843 6.47976 14.625 6.33668 14.625 6.1875V5.0625ZM14.625 12.9375C14.625 13.3851 14.4472 13.8143 14.1307 14.1307C13.8143 14.4472 13.3851 14.625 12.9375 14.625H11.8125C11.6633 14.625 11.5202 14.6843 11.4148 14.7898C11.3093 14.8952 11.25 15.0383 11.25 15.1875C11.25 15.3367 11.3093 15.4798 11.4148 15.5852C11.5202 15.6907 11.6633 15.75 11.8125 15.75H12.9375C13.6834 15.75 14.3988 15.4537 14.9262 14.9262C15.4537 14.3988 15.75 13.6834 15.75 12.9375V11.8125C15.75 11.6633 15.6907 11.5202 15.5852 11.4148C15.4798 11.3093 15.3367 11.25 15.1875 11.25C15.0383 11.25 14.8952 11.3093 14.7898 11.4148C14.6843 11.5202 14.625 11.6633 14.625 11.8125V12.9375ZM3.375 12.9375C3.375 13.3851 3.55279 13.8143 3.86926 14.1307C4.18572 14.4472 4.61495 14.625 5.0625 14.625H6.46875C6.61793 14.625 6.76101 14.6843 6.8665 14.7898C6.97199 14.8952 7.03125 15.0383 7.03125 15.1875C7.03125 15.3367 6.97199 15.4798 6.8665 15.5852C6.76101 15.6907 6.61793 15.75 6.46875 15.75H5.0625C4.31658 15.75 3.60121 15.4537 3.07376 14.9262C2.54632 14.3988 2.25 13.6834 2.25 12.9375V11.5312C2.25 11.3821 2.30926 11.239 2.41475 11.1335C2.52024 11.028 2.66332 10.9688 2.8125 10.9688C2.96168 10.9688 3.10476 11.028 3.21025 11.1335C3.31574 11.239 3.375 11.3821 3.375 11.5312V12.9375ZM6.1875 4.5C5.73995 4.5 5.31072 4.67779 4.99426 4.99426C4.67779 5.31072 4.5 5.73995 4.5 6.1875V11.8125C4.5 12.2601 4.67779 12.6893 4.99426 13.0057C5.31072 13.3222 5.73995 13.5 6.1875 13.5H11.8125C12.2601 13.5 12.6893 13.3222 13.0057 13.0057C13.3222 12.6893 13.5 12.2601 13.5 11.8125V6.1875C13.5 5.73995 13.3222 5.31072 13.0057 4.99426C12.6893 4.67779 12.2601 4.5 11.8125 4.5H6.1875ZM5.625 6.1875C5.625 6.03832 5.68426 5.89524 5.78975 5.78975C5.89524 5.68426 6.03832 5.625 6.1875 5.625H11.8125C11.9617 5.625 12.1048 5.68426 12.2102 5.78975C12.3157 5.89524 12.375 6.03832 12.375 6.1875V11.8125C12.375 11.9617 12.3157 12.1048 12.2102 12.2102C12.1048 12.3157 11.9617 12.375 11.8125 12.375H6.1875C6.03832 12.375 5.89524 12.3157 5.78975 12.2102C5.68426 12.1048 5.625 11.9617 5.625 11.8125V6.1875Z" fill="black"/>
</g>
</svg>
