<svg width="16" height="16" viewBox="0 0 16 16" fill="none" xmlns="http://www.w3.org/2000/svg">
<g id="mingcute:background-line">
<g id="Group">
<path id="Vector" d="M13.8352 2.89467C13.9513 3.02777 14.0099 3.20152 13.998 3.37777C13.9861 3.55401 13.9048 3.71834 13.7719 3.83467L3.10519 13.168C3.03977 13.2285 2.96288 13.2753 2.87907 13.3056C2.79526 13.3359 2.70622 13.349 2.61723 13.3443C2.52824 13.3396 2.4411 13.3171 2.36096 13.2781C2.28082 13.2392 2.2093 13.1845 2.15064 13.1174C2.09198 13.0503 2.04737 12.9722 2.01944 12.8876C1.9915 12.8029 1.98082 12.7136 1.98802 12.6247C1.99522 12.5359 2.02015 12.4494 2.06134 12.3704C2.10254 12.2914 2.15916 12.2214 2.22785 12.1647L12.8945 2.83133C13.0276 2.7152 13.2014 2.65664 13.3776 2.66852C13.5539 2.68039 13.7189 2.76173 13.8352 2.89467ZM13.8352 7.14467C13.9513 7.27777 14.0099 7.45152 13.998 7.62777C13.9861 7.80401 13.9048 7.96834 13.7719 8.08467L7.96252 13.1687C7.8966 13.2263 7.81996 13.2704 7.737 13.2985C7.65403 13.3265 7.56635 13.3379 7.47897 13.3321C7.39159 13.3262 7.30622 13.3032 7.22773 13.2644C7.14924 13.2255 7.07917 13.1716 7.02152 13.1057C6.96387 13.0397 6.91977 12.9631 6.89174 12.8801C6.8637 12.7972 6.85228 12.7095 6.85813 12.6221C6.86398 12.5347 6.88699 12.4494 6.92583 12.3709C6.96467 12.2924 7.0186 12.2223 7.08452 12.1647L12.8939 7.08133C12.9598 7.02362 13.0365 6.97948 13.1195 6.95143C13.2025 6.92338 13.2902 6.91197 13.3777 6.91785C13.4651 6.92373 13.5505 6.94679 13.629 6.98571C13.7075 7.02463 13.7776 7.07865 13.8352 7.14467ZM12.8939 10.998C13.0213 10.8849 13.1871 10.8249 13.3574 10.8302C13.5277 10.8356 13.6895 10.9059 13.8095 11.0268C13.9296 11.1477 13.9988 11.31 14.0029 11.4803C14.0071 11.6506 13.9459 11.8161 13.8319 11.9427L13.7719 12.002L12.4385 13.1687C12.3109 13.2805 12.1455 13.3395 11.9759 13.3336C11.8063 13.3277 11.6454 13.2573 11.5259 13.1369C11.4063 13.0164 11.3373 12.8549 11.3327 12.6853C11.3281 12.5157 11.3884 12.3507 11.5012 12.224L11.5612 12.1647L12.8939 10.998ZM8.97852 2.89467C9.09473 3.02769 9.15341 3.20139 9.14166 3.37763C9.12991 3.55387 9.0487 3.71825 8.91585 3.83467L3.10652 8.91867C3.0406 8.97632 2.96396 9.02042 2.881 9.04845C2.79803 9.07649 2.71035 9.0879 2.62297 9.08205C2.53559 9.0762 2.45022 9.0532 2.37173 9.01436C2.29324 8.97551 2.22317 8.92159 2.16552 8.85567C2.10787 8.78974 2.06377 8.71311 2.03573 8.63014C2.0077 8.54717 1.99628 8.4595 2.00213 8.37212C2.00798 8.28474 2.03099 8.19937 2.06983 8.12088C2.10867 8.04239 2.1626 7.97232 2.22852 7.91467L8.03785 2.83133C8.17096 2.7152 8.34471 2.65664 8.52096 2.66852C8.6972 2.68039 8.86153 2.76173 8.97785 2.89467H8.97852ZM3.84652 2.83133C3.97412 2.71949 4.13957 2.66051 4.30915 2.66642C4.47872 2.67233 4.63967 2.74267 4.75918 2.86312C4.87869 2.98357 4.94778 3.14505 4.95237 3.31467C4.95695 3.48429 4.89669 3.64927 4.78385 3.776L4.72452 3.83533L3.10652 5.252C2.97954 5.36808 2.81259 5.43058 2.64059 5.42642C2.46859 5.42226 2.30486 5.35177 2.18364 5.22968C2.06242 5.10759 1.99308 4.94337 1.99014 4.77135C1.9872 4.59932 2.05087 4.43283 2.16785 4.30667L2.22785 4.24733L3.84652 2.83133Z" fill="black"/>
</g>
</g>
</svg>
