<svg width="16" height="16" viewBox="0 0 16 16" fill="none" xmlns="http://www.w3.org/2000/svg">
<g id="streamline:ai-generate-landscape-image-spark" clip-path="url(#clip0_360_1100)">
<g id="Group">
<path id="Vector" d="M0.658203 7.69485C1.09716 7.61537 1.54239 7.57559 1.98849 7.57599C3.7942 7.57599 5.44792 8.21942 6.73592 9.29028" stroke="black" stroke-width="1.25" stroke-linecap="round" stroke-linejoin="round"/>
<path id="Vector_2" d="M5.80106 12.1474H1.80106C1.49796 12.1474 1.20727 12.027 0.992938 11.8127C0.778611 11.5984 0.658203 11.3077 0.658203 11.0046V1.86173C0.658203 1.55862 0.778611 1.26793 0.992938 1.05361C1.20727 0.83928 1.49796 0.718872 1.80106 0.718872H10.9439C11.247 0.718872 11.5377 0.83928 11.752 1.05361C11.9664 1.26793 12.0868 1.55862 12.0868 1.86173V5.86173" stroke="black" stroke-width="1.25" stroke-linecap="round" stroke-linejoin="round"/>
<path id="Vector_3" d="M7.22984 6.43313C7.60872 6.43313 7.97208 6.28262 8.23999 6.01471C8.5079 5.7468 8.65841 5.38344 8.65841 5.00456C8.65841 4.62568 8.5079 4.26232 8.23999 3.99441C7.97208 3.7265 7.60872 3.57599 7.22984 3.57599C6.85096 3.57599 6.4876 3.7265 6.21969 3.99441C5.95178 4.26232 5.80127 4.62568 5.80127 5.00456C5.80127 5.38344 5.95178 5.7468 6.21969 6.01471C6.4876 6.28262 6.85096 6.43313 7.22984 6.43313ZM8.3887 12.072C7.98756 12.0023 7.98756 11.4263 8.3887 11.3566C9.09872 11.2324 9.75578 10.8998 10.2763 10.4013C10.7969 9.90268 11.1574 9.26057 11.3121 8.55656L11.3361 8.4457C11.423 8.04913 11.9876 8.04685 12.0778 8.44227L12.1076 8.57142C12.2672 9.27271 12.6307 9.91111 13.1523 10.4063C13.6739 10.9015 14.3303 11.2313 15.039 11.3543C15.4424 11.4251 15.4424 12.0034 15.039 12.0743C14.3303 12.1972 13.6739 12.5271 13.1523 13.0223C12.6307 13.5174 12.2672 14.1558 12.1076 14.8571L12.0778 14.9863C11.9876 15.3817 11.423 15.3794 11.3361 14.9828L11.3121 14.872C11.1574 14.168 10.7969 13.5259 10.2763 13.0273C9.75578 12.5287 9.09872 12.1962 8.3887 12.072Z" stroke="black" stroke-width="1.25" stroke-linecap="round" stroke-linejoin="round"/>
</g>
</g>
<defs>
<clipPath id="clip0_360_1100">
<rect width="16" height="16" fill="white"/>
</clipPath>
</defs>
</svg>
