<svg width="32" height="32" viewBox="0 0 32 32" fill="none" xmlns="http://www.w3.org/2000/svg">
<g id="icon-park-solid:damage-map">
<g id="Mask group">
<mask id="mask0_1820_2314" style="mask-type:luminance" maskUnits="userSpaceOnUse" x="2" y="4" width="28" height="24">
<g id="Group">
<g id="Group_2">
<path id="Vector" d="M3.33325 6.66668V25.3333C3.33325 25.687 3.47373 26.0261 3.72378 26.2762C3.97382 26.5262 4.31296 26.6667 4.66659 26.6667H11.9999L9.99992 19.3333L14.6666 18L13.9999 13.3333L19.3333 10.6667L17.9999 8.66668L19.9999 5.33334H4.66659C4.31296 5.33334 3.97382 5.47382 3.72378 5.72387C3.47373 5.97392 3.33325 6.31305 3.33325 6.66668ZM28.6666 25.3333V6.66668C28.6666 6.31305 28.5261 5.97392 28.2761 5.72387C28.026 5.47382 27.6869 5.33334 27.3333 5.33334H25.3333L22.6666 9.33334L24.6666 12.6667L18.6666 15.3333L19.3333 20.6667L14.6666 22L15.9999 26.6667H27.3333C27.6869 26.6667 28.026 26.5262 28.2761 26.2762C28.5261 26.0261 28.6666 25.687 28.6666 25.3333Z" fill="white" stroke="white" stroke-width="1.33333" stroke-linecap="round" stroke-linejoin="round"/>
<path id="Vector_2" fill-rule="evenodd" clip-rule="evenodd" d="M9.6665 12C9.93172 12 10.1861 11.8946 10.3736 11.7071C10.5611 11.5196 10.6665 11.2652 10.6665 11C10.6665 10.7348 10.5611 10.4804 10.3736 10.2929C10.1861 10.1054 9.93172 10 9.6665 10C9.40129 10 9.14693 10.1054 8.9594 10.2929C8.77186 10.4804 8.6665 10.7348 8.6665 11C8.6665 11.2652 8.77186 11.5196 8.9594 11.7071C9.14693 11.8946 9.40129 12 9.6665 12Z" fill="black" stroke="black" stroke-width="1.33333" stroke-linecap="round" stroke-linejoin="round"/>
</g>
</g>
</mask>
<g mask="url(#mask0_1820_2314)">
<path id="Vector_3" d="M0 0H32V32H0V0Z" fill="#EA4335"/>
</g>
</g>
</g>
</svg>
