<svg width="32" height="32" viewBox="0 0 32 32" fill="none" xmlns="http://www.w3.org/2000/svg">
<g id="f7:wand-rays">
<path id="Vector" d="M17.1583 2.89488C17.1583 2.26574 16.6229 1.72974 15.9932 1.72974C15.364 1.72974 14.828 2.26574 14.828 2.89545V7.02002C14.828 7.66288 15.364 8.19888 15.9937 8.19888C16.6223 8.19888 17.1583 7.66288 17.1583 7.02002V2.89488ZM21.4709 8.86859C21.0292 9.31031 21.0292 10.06 21.4709 10.5155C21.9263 10.9577 22.6897 10.9577 23.132 10.5155L26.0515 7.59545C26.2701 7.37452 26.3927 7.07626 26.3927 6.76545C26.3927 6.45464 26.2701 6.15638 26.0515 5.93545C25.6092 5.49317 24.8595 5.49317 24.404 5.93545L21.4709 8.86859ZM8.85488 10.5155C9.29716 10.9577 10.0469 10.9577 10.4892 10.5155C10.944 10.06 10.944 9.30974 10.4892 8.86802L7.59602 5.94859C7.15431 5.50688 6.40402 5.49317 5.94859 5.93545C5.50688 6.37717 5.50688 7.12745 5.94859 7.58288L8.85488 10.5155ZM26.8286 29.0115C27.3915 29.5869 28.3555 29.5869 28.8915 29.0115C29.159 28.7347 29.3085 28.3649 29.3085 27.98C29.3085 27.5951 29.159 27.2253 28.8915 26.9486L16.1675 14.1715C15.6052 13.6092 14.6275 13.6092 14.1046 14.1715C13.5423 14.7612 13.556 15.6857 14.1046 16.248L26.8286 29.0115ZM2.89488 14.8286C2.26574 14.8286 1.72974 15.364 1.72974 15.9932C1.72974 16.6229 2.26574 17.1589 2.89545 17.1589H7.03374C7.67659 17.1589 8.21202 16.6229 8.21202 15.9932C8.21202 15.364 7.67659 14.828 7.03374 14.828L2.89488 14.8286ZM29.0915 17.1583C29.7212 17.1583 30.2703 16.6229 30.2703 15.9932C30.2703 15.364 29.7212 14.828 29.0915 14.828H24.9663C24.3235 14.828 23.788 15.364 23.788 15.9937C23.788 16.6223 24.3235 17.1583 24.9663 17.1583H29.0915ZM19.0469 19.8103L15.1097 15.8732C14.8686 15.632 14.8149 15.3772 15.0292 15.136C15.2703 14.9217 15.5246 14.9755 15.7789 15.2297L19.7035 19.1669L19.0469 19.8103ZM5.93545 24.3909C5.49317 24.8326 5.48002 25.596 5.92174 26.0377C6.36402 26.48 7.12745 26.4932 7.58288 26.0515L10.4886 23.1315C10.5967 23.0246 10.6825 22.8974 10.741 22.7572C10.7996 22.617 10.8297 22.4665 10.8297 22.3146C10.8297 22.1626 10.7996 22.0122 10.741 21.872C10.6825 21.7318 10.5967 21.6046 10.4886 21.4977C10.06 21.0423 9.29716 21.0423 8.85488 21.4977L5.93545 24.3909ZM17.1583 24.9795C17.1583 24.3372 16.6229 23.8012 15.9932 23.8012C15.364 23.8012 14.828 24.3372 14.828 24.98V29.1052C14.828 29.7343 15.364 30.2703 15.9937 30.2703C16.6223 30.2703 17.1583 29.7343 17.1583 29.1046V24.9795Z" fill="black"/>
</g>
</svg>
