<svg width="32" height="32" viewBox="0 0 32 32" fill="none" xmlns="http://www.w3.org/2000/svg">
<g id="fluent:resize-large-16-regular">
<path id="Vector" d="M9 6C8.20435 6 7.44129 6.31607 6.87868 6.87868C6.31607 7.44129 6 8.20435 6 9V11C6 11.2652 5.89464 11.5196 5.70711 11.7071C5.51957 11.8946 5.26522 12 5 12C4.73478 12 4.48043 11.8946 4.29289 11.7071C4.10536 11.5196 4 11.2652 4 11V9C4 7.67392 4.52678 6.40215 5.46447 5.46447C6.40215 4.52678 7.67392 4 9 4H11C11.2652 4 11.5196 4.10536 11.7071 4.29289C11.8946 4.48043 12 4.73478 12 5C12 5.26522 11.8946 5.51957 11.7071 5.70711C11.5196 5.89464 11.2652 6 11 6H9ZM26 9C26 8.20435 25.6839 7.44129 25.1213 6.87868C24.5587 6.31607 23.7957 6 23 6H21C20.7348 6 20.4804 5.89464 20.2929 5.70711C20.1054 5.51957 20 5.26522 20 5C20 4.73478 20.1054 4.48043 20.2929 4.29289C20.4804 4.10536 20.7348 4 21 4H23C24.3261 4 25.5979 4.52678 26.5355 5.46447C27.4732 6.40215 28 7.67392 28 9V11C28 11.2652 27.8946 11.5196 27.7071 11.7071C27.5196 11.8946 27.2652 12 27 12C26.7348 12 26.4804 11.8946 26.2929 11.7071C26.1054 11.5196 26 11.2652 26 11V9ZM26 23C26 23.7957 25.6839 24.5587 25.1213 25.1213C24.5587 25.6839 23.7957 26 23 26H21C20.7348 26 20.4804 26.1054 20.2929 26.2929C20.1054 26.4804 20 26.7348 20 27C20 27.2652 20.1054 27.5196 20.2929 27.7071C20.4804 27.8946 20.7348 28 21 28H23C24.3261 28 25.5979 27.4732 26.5355 26.5355C27.4732 25.5979 28 24.3261 28 23V21C28 20.7348 27.8946 20.4804 27.7071 20.2929C27.5196 20.1054 27.2652 20 27 20C26.7348 20 26.4804 20.1054 26.2929 20.2929C26.1054 20.4804 26 20.7348 26 21V23ZM6 23C6 23.7957 6.31607 24.5587 6.87868 25.1213C7.44129 25.6839 8.20435 26 9 26H11.5C11.7652 26 12.0196 26.1054 12.2071 26.2929C12.3946 26.4804 12.5 26.7348 12.5 27C12.5 27.2652 12.3946 27.5196 12.2071 27.7071C12.0196 27.8946 11.7652 28 11.5 28H9C7.67392 28 6.40215 27.4732 5.46447 26.5355C4.52678 25.5979 4 24.3261 4 23V20.5C4 20.2348 4.10536 19.9804 4.29289 19.7929C4.48043 19.6054 4.73478 19.5 5 19.5C5.26522 19.5 5.51957 19.6054 5.70711 19.7929C5.89464 19.9804 6 20.2348 6 20.5V23ZM11 8C10.2044 8 9.44129 8.31607 8.87868 8.87868C8.31607 9.44129 8 10.2044 8 11V21C8 21.7957 8.31607 22.5587 8.87868 23.1213C9.44129 23.6839 10.2044 24 11 24H21C21.7957 24 22.5587 23.6839 23.1213 23.1213C23.6839 22.5587 24 21.7957 24 21V11C24 10.2044 23.6839 9.44129 23.1213 8.87868C22.5587 8.31607 21.7957 8 21 8H11ZM10 11C10 10.7348 10.1054 10.4804 10.2929 10.2929C10.4804 10.1054 10.7348 10 11 10H21C21.2652 10 21.5196 10.1054 21.7071 10.2929C21.8946 10.4804 22 10.7348 22 11V21C22 21.2652 21.8946 21.5196 21.7071 21.7071C21.5196 21.8946 21.2652 22 21 22H11C10.7348 22 10.4804 21.8946 10.2929 21.7071C10.1054 21.5196 10 21.2652 10 21V11Z" fill="black"/>
</g>
</svg>
