<svg width="32" height="32" viewBox="0 0 32 32" fill="none" xmlns="http://www.w3.org/2000/svg">
<g id="hugeicons:image-download-02">
<g id="Group">
<path id="Vector" d="M22.6667 9.99996C23.3213 10.6746 25.0667 13.3333 26 13.3333M26 13.3333C26.9333 13.3333 28.6787 10.6746 29.3333 9.99996M26 13.3333V2.66663" stroke="black" stroke-width="2" stroke-linecap="round" stroke-linejoin="round"/>
<path id="Vector_2" d="M28 17.3333C27.9973 22.8627 27.9293 25.6933 26.1453 27.4787C24.2893 29.3333 21.3053 29.3333 15.3333 29.3333C9.36266 29.3333 6.37599 29.3333 4.52132 27.4787C2.66666 25.624 2.66666 22.6387 2.66666 16.6667C2.66666 10.696 2.66666 7.70933 4.52132 5.85467C6.37599 4 9.36132 4 15.3333 4H18.6667" stroke="black" stroke-width="2" stroke-linecap="round" stroke-linejoin="round"/>
<path id="Vector_3" d="M2.66666 18.8467C3.49332 18.7267 4.32532 18.668 5.16266 18.6707C8.69866 18.596 12.148 19.6973 14.896 21.7787C17.4427 23.7093 19.2333 26.3653 20 29.3333" stroke="black" stroke-width="2" stroke-linecap="round" stroke-linejoin="round"/>
<path id="Vector_4" d="M28 22.528C26.4333 21.7347 24.812 21.332 23.1813 21.3333C20.7133 21.324 19.6027 22.2305 17.3333 23.9999" stroke="black" stroke-width="2" stroke-linecap="round" stroke-linejoin="round"/>
</g>
</g>
</svg>
