<svg width="155" height="41" viewBox="0 0 155 41" fill="none" xmlns="http://www.w3.org/2000/svg">
<g id="logoipsum-244" clip-path="url(#clip0_541_249)">
<path id="Vector" d="M51.5821 11.0339H48V27.1972H57.9164V24.0301H51.5821V11.0339Z" fill="#243A5A"/>
<path id="Vector_2" d="M58.2585 21.7149C58.2585 25.166 60.5738 27.4594 64.0685 27.4594C67.5414 27.4594 69.8567 25.166 69.8567 21.7149C69.8567 18.2638 67.5414 15.9485 64.0685 15.9485C60.5738 15.9485 58.2585 18.2638 58.2585 21.7149ZM61.644 21.693C61.644 20.0549 62.6051 18.9628 64.0685 18.9628C65.5101 18.9628 66.4712 20.0549 66.4712 21.693C66.4712 23.3531 65.5101 24.4452 64.0685 24.4452C62.6051 24.4452 61.644 23.3531 61.644 21.693Z" fill="#243A5A"/>
<path id="Vector_3" d="M70.3978 21.5401C70.3978 24.8382 72.5384 27.0661 75.5744 27.0661C77.0379 27.0661 78.3047 26.5419 78.9381 25.6901V27.1972C78.9381 28.7043 77.9989 29.709 76.3389 29.709C74.8536 29.709 73.827 29.0101 73.7615 27.7651H70.3541C70.6599 30.7575 72.9752 32.7669 76.1423 32.7669C79.8773 32.7669 82.2363 30.3425 82.2363 26.4982V16.2761H79.2002L79.0255 17.39C78.4139 16.4945 77.1252 15.9048 75.64 15.9048C72.582 15.9048 70.3978 18.1982 70.3978 21.5401ZM73.8052 21.4527C73.8052 19.88 74.8536 18.8316 76.186 18.8316C77.7368 18.8316 78.8726 19.8582 78.8726 21.4527C78.8726 23.0472 77.7586 24.1393 76.2078 24.1393C74.8755 24.1393 73.8052 23.0472 73.8052 21.4527Z" fill="#243A5A"/>
<path id="Vector_4" d="M83.2166 21.7149C83.2166 25.166 85.5319 27.4594 89.0267 27.4594C92.4996 27.4594 94.8148 25.166 94.8148 21.7149C94.8148 18.2638 92.4996 15.9485 89.0267 15.9485C85.5319 15.9485 83.2166 18.2638 83.2166 21.7149ZM86.6022 21.693C86.6022 20.0549 87.5632 18.9628 89.0267 18.9628C90.4682 18.9628 91.4293 20.0549 91.4293 21.693C91.4293 23.3531 90.4682 24.4452 89.0267 24.4452C87.5632 24.4452 86.6022 23.3531 86.6022 21.693Z" fill="#243A5A"/>
<path id="Vector_5" d="M97.7149 14.5724C98.7633 14.5724 99.6152 13.7205 99.6152 12.6503C99.6152 11.58 98.7633 10.75 97.7149 10.75C96.6446 10.75 95.7928 11.58 95.7928 12.6503C95.7928 13.7205 96.6446 14.5724 97.7149 14.5724ZM96.0112 27.1972H99.3968V16.2761H96.0112V27.1972Z" fill="#243A5A"/>
<path id="Vector_6" d="M101.368 32.4392H104.688V26.105C105.321 26.935 106.763 27.5029 108.27 27.5029C111.524 27.5029 113.49 25.0129 113.403 21.5618C113.315 18.0452 111.284 15.9265 108.248 15.9265C106.697 15.9265 105.234 16.6036 104.622 17.6084L104.447 16.276H101.368V32.4392ZM104.753 21.7365C104.753 20.0984 105.845 19.0063 107.418 19.0063C109.012 19.0063 110.017 20.1202 110.017 21.7365C110.017 23.3529 109.012 24.4668 107.418 24.4668C105.845 24.4668 104.753 23.3747 104.753 21.7365Z" fill="#243A5A"/>
<path id="Vector_7" d="M113.761 23.746C113.848 25.9521 115.596 27.481 118.348 27.481C120.991 27.481 122.826 26.0831 122.826 23.8334C122.826 22.2171 121.865 21.1468 120.073 20.7099L118.13 20.2294C117.431 20.0547 116.994 19.8799 116.994 19.312C116.994 18.7441 117.452 18.3728 118.13 18.3728C118.894 18.3728 119.396 18.8752 119.375 19.6178H122.411C122.323 17.3462 120.598 15.9265 118.195 15.9265C115.771 15.9265 113.958 17.3681 113.958 19.5523C113.958 21.0157 114.766 22.2171 116.928 22.785L118.85 23.2873C119.418 23.4402 119.658 23.7023 119.658 24.0736C119.658 24.6197 119.156 24.9692 118.304 24.9692C117.321 24.9692 116.797 24.5105 116.797 23.746H113.761Z" fill="#243A5A"/>
<path id="Vector_8" d="M127.974 27.4811C129.307 27.4811 130.639 26.8695 131.316 25.974L131.535 27.1972H134.702V16.2761H131.338V21.9551C131.338 23.5932 130.858 24.4887 129.307 24.4887C128.105 24.4887 127.319 23.9427 127.319 21.9114V16.2761H123.955V23.1345C123.955 25.7338 125.397 27.4811 127.974 27.4811Z" fill="#243A5A"/>
<path id="Vector_9" d="M140.036 27.1972V21.2343C140.036 19.3995 141.019 18.8753 141.98 18.8753C143.05 18.8753 143.749 19.5306 143.749 20.8848V27.1972H147.069V21.2343C147.069 19.3777 148.03 18.8535 148.991 18.8535C150.061 18.8535 150.782 19.5087 150.782 20.8848V27.1972H154.059V20.0548C154.059 17.5648 152.748 15.9048 149.93 15.9048C148.358 15.9048 147.069 16.6692 146.501 17.8487C145.846 16.6692 144.71 15.9048 142.897 15.9048C141.696 15.9048 140.582 16.4508 139.927 17.3245L139.796 16.2761H136.65V27.1972H140.036Z" fill="#243A5A"/>
<path id="Vector_10" d="M0 20.75C0 11.3219 0 6.60786 2.92893 3.67893C5.85786 0.75 10.5719 0.75 20 0.75C29.4281 0.75 34.1421 0.75 37.0711 3.67893C40 6.60786 40 11.3219 40 20.75C40 30.1781 40 34.8921 37.0711 37.8211C34.1421 40.75 29.4281 40.75 20 40.75C10.5719 40.75 5.85786 40.75 2.92893 37.8211C0 34.8921 0 30.1781 0 20.75Z" fill="#243A5A"/>
<path id="Vector_11" d="M24 26.75C24.5523 26.75 25.0101 27.2021 24.9004 27.7434C24.7065 28.6994 24.2355 29.5855 23.5355 30.2855C22.5979 31.2232 21.3261 31.75 20 31.75C18.6739 31.75 17.4022 31.2232 16.4645 30.2855C15.7645 29.5855 15.2935 28.6994 15.0997 27.7434C14.9899 27.2021 15.4477 26.75 16 26.75H24Z" fill="#2DF8BB"/>
<path id="Vector_12" d="M26.1023 18.5265C25.5688 18.6694 25.2421 19.2275 25.5126 19.709C25.7973 20.2158 26.1911 20.6581 26.6702 21.0014C27.4224 21.5404 28.3382 21.802 29.2617 21.7414C30.1851 21.6809 31.059 21.3021 31.7344 20.6695C32.4099 20.0369 32.845 19.1896 32.9658 18.2721C33.0866 17.3546 32.8856 16.4236 32.3969 15.6377C31.9082 14.8519 31.1621 14.2598 30.2858 13.9623C29.4095 13.6648 28.4572 13.6804 27.5911 14.0064C27.0395 14.214 26.5447 14.5393 26.1385 14.9551C25.7526 15.3502 25.9237 15.9739 26.402 16.25L26.9093 16.5429C27.6808 16.9884 27.5287 18.1443 26.6681 18.3749L26.1023 18.5265Z" fill="#2DF8BB"/>
<path id="Vector_13" d="M13.8978 18.5265C14.4313 18.6694 14.758 19.2275 14.4875 19.709C14.2028 20.2158 13.809 20.6581 13.33 21.0014C12.5778 21.5404 11.6619 21.802 10.7385 21.7414C9.81502 21.6809 8.94113 21.3021 8.2657 20.6695C7.59027 20.0369 7.15508 19.1896 7.03429 18.2721C6.9135 17.3546 7.11457 16.4236 7.60326 15.6377C8.09194 14.8519 8.838 14.2598 9.71431 13.9623C10.5906 13.6648 11.543 13.6804 12.4091 14.0064C12.9606 14.214 13.4555 14.5393 13.8617 14.9551C14.2476 15.3502 14.0764 15.9739 13.5981 16.25L13.0908 16.5429C12.3193 16.9884 12.4715 18.1443 13.332 18.3749L13.8978 18.5265Z" fill="#2DF8BB"/>
</g>
<defs>
<clipPath id="clip0_541_249">
<rect width="155" height="40" fill="white" transform="translate(0 0.75)"/>
</clipPath>
</defs>
</svg>
