<svg width="170" height="42" viewBox="0 0 170 42" fill="none" xmlns="http://www.w3.org/2000/svg">
<g id="logoipsum-264" clipPath="url(#clip0_541_208)">
<path id="Vector" d="M51.8601 28.388H63.8121V24.788H56.1081V11.228H51.8601V28.388Z" fill="#340E0E"/>
<path id="Vector_2" d="M70.8932 25.9879C69.1892 25.9879 68.3012 24.4999 68.3012 22.2679C68.3012 20.0359 69.1892 18.5239 70.8932 18.5239C72.5972 18.5239 73.5092 20.0359 73.5092 22.2679C73.5092 24.4999 72.5972 25.9879 70.8932 25.9879ZM70.9172 28.7719C74.8772 28.7719 77.4692 25.9639 77.4692 22.2679C77.4692 18.5719 74.8772 15.7639 70.9172 15.7639C66.9812 15.7639 64.3412 18.5719 64.3412 22.2679C64.3412 25.9639 66.9812 28.7719 70.9172 28.7719Z" fill="#340E0E"/>
<path id="Vector_3" d="M84.3237 32.636C86.1477 32.636 87.7557 32.228 88.8357 31.268C89.8197 30.38 90.4677 29.036 90.4677 27.188V16.1H86.7237V17.42H86.6757C85.9557 16.388 84.8517 15.74 83.2197 15.74C80.1717 15.74 78.0597 18.284 78.0597 21.884C78.0597 25.652 80.6277 27.716 83.3877 27.716C84.8757 27.716 85.8117 27.116 86.5317 26.3H86.6277V27.524C86.6277 29.012 85.9317 29.876 84.2757 29.876C82.9797 29.876 82.3317 29.324 82.1157 28.676H78.3237C78.7077 31.244 80.9397 32.636 84.3237 32.636ZM84.2997 24.812C82.8357 24.812 81.8757 23.612 81.8757 21.764C81.8757 19.892 82.8357 18.692 84.2997 18.692C85.9317 18.692 86.7957 20.084 86.7957 21.74C86.7957 23.468 86.0037 24.812 84.2997 24.812Z" fill="#340E0E"/>
<path id="Vector_4" d="M98.166 25.9879C96.462 25.9879 95.574 24.4999 95.574 22.2679C95.574 20.0359 96.462 18.5239 98.166 18.5239C99.87 18.5239 100.782 20.0359 100.782 22.2679C100.782 24.4999 99.87 25.9879 98.166 25.9879ZM98.19 28.7719C102.15 28.7719 104.742 25.9639 104.742 22.2679C104.742 18.5719 102.15 15.7639 98.19 15.7639C94.254 15.7639 91.614 18.5719 91.614 22.2679C91.614 25.9639 94.254 28.7719 98.19 28.7719Z" fill="#340E0E"/>
<path id="Vector_5" d="M105.884 28.388H109.796V16.1H105.884V28.388ZM105.884 14.396H109.796V11.228H105.884V14.396Z" fill="#340E0E"/>
<path id="Vector_6" d="M111.494 32.444H115.406V27.116H115.454C116.222 28.148 117.35 28.772 118.934 28.772C122.15 28.772 124.286 26.228 124.286 22.244C124.286 18.548 122.294 15.74 119.03 15.74C117.35 15.74 116.15 16.484 115.31 17.588H115.238V16.1H111.494V32.444ZM117.926 25.748C116.246 25.748 115.286 24.38 115.286 22.388C115.286 20.396 116.15 18.884 117.854 18.884C119.534 18.884 120.326 20.276 120.326 22.388C120.326 24.476 119.414 25.748 117.926 25.748Z" fill="#340E0E"/>
<path id="Vector_7" d="M130.655 28.772C133.871 28.772 136.247 27.38 136.247 24.692C136.247 21.548 133.703 20.996 131.543 20.636C129.983 20.348 128.591 20.228 128.591 19.364C128.591 18.596 129.335 18.236 130.295 18.236C131.375 18.236 132.119 18.572 132.263 19.676H135.863C135.671 17.252 133.799 15.74 130.319 15.74C127.415 15.74 125.015 17.084 125.015 19.676C125.015 22.556 127.295 23.132 129.431 23.492C131.063 23.78 132.551 23.9 132.551 25.004C132.551 25.796 131.807 26.228 130.631 26.228C129.335 26.228 128.519 25.628 128.375 24.404H124.679C124.799 27.116 127.055 28.772 130.655 28.772Z" fill="#340E0E"/>
<path id="Vector_8" d="M141.561 28.7481C143.265 28.7481 144.345 28.0761 145.233 26.8761H145.305V28.3881H149.049V16.1001H145.137V22.9641C145.137 24.4281 144.321 25.4361 142.977 25.4361C141.729 25.4361 141.129 24.6921 141.129 23.3481V16.1001H137.241V24.1641C137.241 26.9001 138.729 28.7481 141.561 28.7481Z" fill="#340E0E"/>
<path id="Vector_9" d="M150.75 28.388H154.662V21.5C154.662 20.036 155.382 19.004 156.606 19.004C157.782 19.004 158.334 19.772 158.334 21.092V28.388H162.246V21.5C162.246 20.036 162.942 19.004 164.19 19.004C165.366 19.004 165.918 19.772 165.918 21.092V28.388H169.83V20.396C169.83 17.636 168.438 15.74 165.654 15.74C164.07 15.74 162.75 16.412 161.79 17.9H161.742C161.118 16.58 159.894 15.74 158.286 15.74C156.51 15.74 155.334 16.58 154.566 17.852H154.494V16.1H150.75V28.388Z" fill="#340E0E"/>
<path id="Vector_10" fill-rule="evenodd" clip-rule="evenodd" d="M20.6841 40.3879C31.7298 40.3879 40.6841 31.4336 40.6841 20.3879C40.6841 9.34225 31.7298 0.387939 20.6841 0.387939C9.63837 0.387939 0.684082 9.34225 0.684082 20.3879C0.684082 31.4336 9.63837 40.3879 20.6841 40.3879ZM26.9234 9.70478C27.2271 8.62599 26.1802 7.98807 25.2241 8.66924L11.8772 18.1775C10.8403 18.9162 11.0034 20.3879 12.1222 20.3879H15.6368V20.3607H22.4866L16.9053 22.33L14.4448 31.0711C14.1411 32.1499 15.1879 32.7878 16.1441 32.1066L29.491 22.5984C30.5279 21.8597 30.3647 20.3879 29.246 20.3879H23.9162L26.9234 9.70478Z" fill="#F15757"/>
</g>
<defs>
<clipPath id="clip0_541_208">
<rect width="170" height="41" fill="white" transform="translate(0 0.25)"/>
</clipPath>
</defs>
</svg>
