<svg width="32" height="32" viewBox="0 0 32 32" fill="none" xmlns="http://www.w3.org/2000/svg">
<g id="mingcute:background-line">
<g id="Group">
<path id="Vector" d="M27.6707 5.78933C27.9029 6.05554 28.0201 6.40305 27.9963 6.75554C27.9726 7.10803 27.8099 7.43668 27.544 7.66933L6.21068 26.336C6.07984 26.457 5.92606 26.5506 5.75844 26.6112C5.59082 26.6717 5.41275 26.6981 5.23477 26.6886C5.05679 26.6792 4.88251 26.6342 4.72223 26.5562C4.56194 26.4783 4.41891 26.369 4.30159 26.2348C4.18427 26.1007 4.09504 25.9443 4.03918 25.7751C3.98331 25.6059 3.96195 25.4271 3.97634 25.2495C3.99074 25.0718 4.0406 24.8989 4.12299 24.7408C4.20538 24.5828 4.31862 24.4429 4.45601 24.3293L25.7893 5.66266C26.0556 5.4304 26.4031 5.31328 26.7556 5.33703C27.108 5.36078 27.438 5.52346 27.6707 5.78933ZM27.6707 14.2893C27.9029 14.5555 28.0201 14.903 27.9963 15.2555C27.9726 15.608 27.8099 15.9367 27.544 16.1693L15.9253 26.3373C15.7935 26.4526 15.6402 26.5408 15.4743 26.5969C15.3084 26.653 15.133 26.6758 14.9583 26.6641C14.7835 26.6524 14.6127 26.6064 14.4558 26.5287C14.2988 26.451 14.1586 26.3432 14.0433 26.2113C13.928 26.0795 13.8398 25.9262 13.7838 25.7603C13.7277 25.5943 13.7049 25.419 13.7166 25.2442C13.7283 25.0695 13.7743 24.8987 13.852 24.7418C13.9297 24.5848 14.0375 24.4446 14.1693 24.3293L25.788 14.1627C25.9199 14.0472 26.0732 13.959 26.2393 13.9029C26.4053 13.8468 26.5807 13.8239 26.7556 13.8357C26.9305 13.8475 27.1013 13.8936 27.2583 13.9714C27.4153 14.0493 27.5554 14.1573 27.6707 14.2893ZM25.788 21.996C26.0428 21.7698 26.3746 21.6497 26.7151 21.6604C27.0557 21.6711 27.3793 21.8118 27.6193 22.0536C27.8594 22.2954 27.9978 22.62 28.0061 22.9606C28.0144 23.3012 27.892 23.6321 27.664 23.8853L27.544 24.004L24.8773 26.3373C24.6221 26.561 24.2912 26.679 23.9521 26.6672C23.6129 26.6553 23.2911 26.5147 23.052 26.2738C22.813 26.0329 22.6748 25.7099 22.6657 25.3707C22.6565 25.0314 22.777 24.7015 23.0027 24.448L23.1227 24.3293L25.788 21.996ZM17.9573 5.78933C18.1898 6.05537 18.3071 6.40277 18.2836 6.75526C18.2601 7.10775 18.0977 7.4365 17.832 7.66933L6.21335 17.8373C6.0815 17.9526 5.92823 18.0408 5.7623 18.0969C5.59636 18.153 5.42101 18.1758 5.24625 18.1641C5.07149 18.1524 4.90075 18.1064 4.74377 18.0287C4.58679 17.951 4.44665 17.8432 4.33135 17.7113C4.21605 17.5795 4.12784 17.4262 4.07178 17.2603C4.01571 17.0943 3.99287 16.919 4.00457 16.7442C4.01627 16.5695 4.06228 16.3987 4.13997 16.2418C4.21765 16.0848 4.3255 15.9446 4.45735 15.8293L16.076 5.66266C16.3422 5.4304 16.6897 5.31328 17.0422 5.33703C17.3947 5.36078 17.7234 5.52346 17.956 5.78933H17.9573ZM7.69335 5.66266C7.94855 5.43898 8.27945 5.32103 8.6186 5.33284C8.95775 5.34465 9.27964 5.48534 9.51867 5.72624C9.75769 5.96713 9.89587 6.29011 9.90504 6.62934C9.91421 6.96858 9.79368 7.29854 9.56801 7.552L9.44935 7.67066L6.21335 10.504C5.95938 10.7362 5.62549 10.8612 5.28149 10.8528C4.9375 10.8445 4.61004 10.7035 4.36759 10.4594C4.12514 10.2152 3.98647 9.88674 3.98059 9.5427C3.9747 9.19865 4.10205 8.86565 4.33601 8.61333L4.45601 8.49466L7.69335 5.66266Z" fill="black"/>
</g>
</g>
</svg>
