<svg width="32" height="32" viewBox="0 0 32 32" fill="none" xmlns="http://www.w3.org/2000/svg">
<g id="streamline:ai-generate-landscape-image-spark" clip-path="url(#clip0_157_297)">
<g id="Group">
<path id="Vector" d="M1.31659 15.3897C2.19451 15.2307 3.08497 15.1512 3.97716 15.152C7.58859 15.152 10.896 16.4388 13.472 18.5806" stroke="black" stroke-width="2" stroke-linecap="round" stroke-linejoin="round"/>
<path id="Vector_2" d="M11.6023 24.2949H3.6023C2.99609 24.2949 2.41471 24.0541 1.98606 23.6254C1.5574 23.1968 1.31659 22.6154 1.31659 22.0092V3.72346C1.31659 3.11725 1.5574 2.53587 1.98606 2.10721C2.41471 1.67856 2.99609 1.43774 3.6023 1.43774H21.888C22.4942 1.43774 23.0756 1.67856 23.5043 2.10721C23.9329 2.53587 24.1737 3.11725 24.1737 3.72346V11.7235" stroke="black" stroke-width="2" stroke-linecap="round" stroke-linejoin="round"/>
<path id="Vector_3" d="M14.4594 12.8663C15.2172 12.8663 15.9439 12.5652 16.4797 12.0294C17.0156 11.4936 17.3166 10.7669 17.3166 10.0091C17.3166 9.25136 17.0156 8.52463 16.4797 7.98882C15.9439 7.453 15.2172 7.15198 14.4594 7.15198C13.7017 7.15198 12.975 7.453 12.4391 7.98882C11.9033 8.52463 11.6023 9.25136 11.6023 10.0091C11.6023 10.7669 11.9033 11.4936 12.4391 12.0294C12.975 12.5652 13.7017 12.8663 14.4594 12.8663ZM16.7772 24.144C15.9749 24.0045 15.9749 22.8525 16.7772 22.7131C18.1972 22.4647 19.5113 21.7997 20.5524 20.8025C21.5935 19.8054 22.3146 18.5211 22.624 17.1131L22.672 16.8914C22.8457 16.0983 23.9749 16.0937 24.1554 16.8845L24.2149 17.1428C24.5341 18.5454 25.2611 19.8222 26.3044 20.8126C27.3476 21.8029 28.6605 22.4626 30.0777 22.7085C30.8846 22.8503 30.8846 24.0068 30.0777 24.1485C28.6605 24.3945 27.3476 25.0542 26.3044 26.0445C25.2611 27.0349 24.5341 28.3117 24.2149 29.7143L24.1554 29.9725C23.9749 30.7634 22.8457 30.7588 22.672 29.9657L22.624 29.744C22.3146 28.336 21.5935 27.0517 20.5524 26.0546C19.5113 25.0574 18.1972 24.3924 16.7772 24.144Z" stroke="black" stroke-width="2" stroke-linecap="round" stroke-linejoin="round"/>
</g>
</g>
<defs>
<clipPath id="clip0_157_297">
<rect width="32" height="32" fill="white"/>
</clipPath>
</defs>
</svg>
