<svg width="18" height="18" viewBox="0 0 18 18" fill="none" xmlns="http://www.w3.org/2000/svg">
<g id="tabler:progress">
<path id="Vector" d="M7.50002 15.5828C6.84741 15.4341 6.22056 15.1891 5.64002 14.856M10.5 2.41725C11.9911 2.75781 13.3225 3.59452 14.276 4.79041C15.2296 5.98629 15.7488 7.47049 15.7488 9C15.7488 10.5295 15.2296 12.0137 14.276 13.2096C13.3225 14.4055 11.9911 15.2422 10.5 15.5828M3.43427 12.8198C3.02559 12.2251 2.71489 11.5688 2.51402 10.8758M2.34302 7.875C2.46302 7.1625 2.69402 6.4875 3.01802 5.86875L3.14477 5.64M5.18027 3.43425C5.88242 2.95191 6.66952 2.60684 7.50002 2.41725" stroke="#5A5555" strokeWidth="1.5" strokeLinecap="round" strokeLinejoin="round"/>
</g>
</svg>
