<svg width="18" height="18" viewBox="0 0 18 18" fill="none" xmlns="http://www.w3.org/2000/svg">
<g id="tabler:progress-check">
<g id="Group">
<path id="Vector" d="M7.49977 15.5827C6.84717 15.434 6.22031 15.1891 5.63977 14.856M10.4998 2.41724C11.9909 2.75779 13.3222 3.5945 14.2758 4.79039C15.2293 5.98628 15.7486 7.47047 15.7486 8.99999C15.7486 10.5295 15.2293 12.0137 14.2758 13.2096C13.3222 14.4055 11.9909 15.2422 10.4998 15.5827M3.43402 12.8197C3.02534 12.2251 2.71465 11.5688 2.51377 10.8757M2.34277 7.87499C2.46277 7.16249 2.69377 6.48749 3.01777 5.86874L3.14452 5.63999M5.18002 3.43424C5.88217 2.9519 6.66928 2.60682 7.49977 2.41724" stroke="#5A5555" stroke-width="1.5" stroke-linecap="round" stroke-linejoin="round"/>
<path id="Vector_2" d="M6.75 9L8.25 10.5L11.25 7.5" stroke="#009024" stroke-width="1.5" stroke-linecap="round" stroke-linejoin="round"/>
</g>
<circle id="Ellipse 4" cx="9" cy="9" r="7" stroke="#009024" stroke-width="2"/>
</g>
</svg>
